<?xml version="1.0" standalone="no"?>
<!DOCTYPE svg PUBLIC "-//W3C//DTD SVG 20010904//EN"
 "http://www.w3.org/TR/2001/REC-SVG-20010904/DTD/svg10.dtd">
<svg version="1.0" xmlns="http://www.w3.org/2000/svg"
 width="1000.000000pt" height="1000.000000pt" viewBox="0 0 1000.000000 1000.000000"
 preserveAspectRatio="xMidYMid meet">
<metadata>
Created by potrace 1.11, written by Peter Selinger 2001-2013
</metadata>
<g transform="translate(0.000000,1000.000000) scale(0.100000,-0.100000)"
fill="#000000" stroke="none">
<path d="M4655 9914 c-227 -22 -362 -39 -480 -59 -2068 -357 -3674 -1963
-4030 -4030 -52 -301 -60 -413 -60 -830 0 -314 4 -418 18 -535 66 -537 189
-994 392 -1459 46 -104 61 -130 79 -133 19 -4 28 4 51 46 94 170 219 314 343
396 126 85 368 150 556 150 96 0 138 -13 144 -44 7 -34 -40 -65 -187 -123
-181 -71 -226 -110 -168 -148 30 -19 144 -42 282 -55 61 -6 324 -14 585 -17
839 -10 1507 29 1945 113 478 92 845 234 1180 457 97 65 245 176 245 185 0 2
-24 41 -54 86 -170 255 -520 495 -919 630 -215 72 -360 108 -642 155 -465 80
-856 192 -1242 357 -299 128 -573 273 -638 339 -52 52 -113 145 -145 220 -23
56 -25 70 -23 205 4 395 132 883 319 1213 205 362 534 613 1109 845 596 240
1207 375 1965 434 254 20 952 16 1168 -5 517 -53 790 -153 868 -322 20 -42 24
-66 24 -147 0 -302 -82 -559 -230 -721 -74 -81 -224 -154 -633 -306 -257 -96
-553 -245 -771 -387 -176 -116 -235 -141 -264 -112 -31 31 -3 98 82 198 119
139 270 253 519 389 323 176 336 209 91 233 -132 13 -617 -1 -914 -27 -1130
-98 -2069 -408 -2430 -802 -168 -184 -179 -405 -23 -503 72 -46 277 -111 818
-259 516 -141 772 -225 1112 -367 790 -329 1236 -655 1409 -1030 62 -133 77
-209 78 -384 1 -231 -38 -382 -155 -610 -203 -393 -617 -735 -1109 -918 -504
-187 -1184 -324 -1930 -389 -157 -13 -306 -17 -635 -17 -415 0 -498 4 -820 39
-30 4 -36 2 -23 -6 10 -5 19 -9 20 -8 2 1 13 -3 26 -10 20 -11 21 -15 10 -29
-11 -13 -11 -15 5 -9 12 5 17 1 17 -13 0 -11 5 -20 11 -20 5 0 7 6 4 13 -4 6
1 3 9 -7 13 -16 13 -22 3 -28 -9 -6 -9 -8 2 -8 22 0 81 -49 81 -68 0 -15 2
-15 10 -2 8 12 10 11 10 -7 0 -12 5 -25 12 -29 7 -5 9 -2 4 7 -4 8 -1 5 8 -5
8 -10 13 -24 9 -30 -3 -6 -3 -8 1 -4 11 9 68 -51 60 -64 -4 -7 -3 -8 4 -4 7 4
12 2 12 -4 0 -6 5 -8 12 -4 7 5 9 2 5 -8 -8 -21 3 -31 19 -17 10 8 11 5 7 -13
-5 -23 -5 -23 10 -3 l16 20 -2 -20 c-1 -13 3 -19 12 -17 12 3 12 0 2 -12 -13
-16 -1 -29 21 -21 15 6 42 -31 28 -40 -5 -3 -7 -12 -4 -20 4 -8 11 -12 16 -9
6 4 5 10 -3 16 -11 8 -11 9 1 5 8 -2 14 -12 14 -21 -1 -9 2 -16 7 -16 5 0 9 5
9 11 0 8 5 7 15 -1 9 -7 12 -16 7 -19 -5 -3 2 -17 16 -31 13 -14 21 -18 16
-10 -7 13 -6 13 11 0 16 -14 16 -15 1 -18 -9 -2 -14 -8 -10 -13 3 -5 10 -7 15
-4 5 4 9 2 9 -3 0 -6 11 -13 25 -16 14 -4 25 -13 25 -22 0 -8 5 -12 11 -8 7 4
9 0 5 -13 -4 -13 -2 -20 8 -20 9 0 12 7 8 16 -6 17 -4 16 18 -13 10 -13 10
-17 3 -12 -22 12 -14 -5 11 -29 14 -13 22 -26 18 -29 -3 -4 0 -4 9 -1 10 4 20
-6 32 -34 12 -27 23 -38 33 -34 8 3 14 -1 14 -8 0 -11 3 -11 11 1 8 12 10 9 6
-12 -2 -15 0 -25 4 -22 8 5 31 -30 24 -38 -2 -2 8 -5 22 -6 33 -3 42 -11 24
-21 -10 -6 -9 -10 5 -15 9 -3 14 -9 11 -12 -3 -3 2 -14 11 -23 13 -13 21 -15
31 -7 12 9 13 7 8 -6 -4 -13 -1 -18 11 -18 13 0 14 -2 4 -9 -11 -6 -10 -10 5
-16 10 -5 21 -7 26 -7 6 2 11 -22 8 -41 -1 -5 3 -6 8 -2 6 3 15 -3 21 -14 6
-12 16 -18 25 -15 11 5 13 2 9 -10 -4 -11 0 -16 12 -16 18 -1 18 -1 1 -14 -14
-11 -15 -15 -4 -19 8 -3 18 -2 23 3 5 5 18 2 29 -7 19 -15 19 -15 -5 -8 -92
25 340 -188 550 -270 405 -161 821 -264 1290 -322 209 -26 859 -26 1075 0
1146 137 2148 619 2945 1417 728 727 1200 1639 1375 2655 52 302 60 413 60
830 0 313 -4 420 -18 540 -23 191 -58 396 -97 564 -67 290 -200 702 -200 620
0 -8 -17 -51 -39 -95 -89 -182 -243 -354 -377 -420 -68 -34 -86 -39 -170 -42
-87 -4 -97 -2 -158 26 -83 39 -148 100 -183 171 -24 48 -28 68 -27 136 1 93
13 142 60 244 89 193 258 388 398 457 77 38 83 39 182 39 l102 0 -28 56 c-46
90 -168 296 -247 416 -307 468 -719 904 -1175 1244 -696 519 -1503 837 -2398
945 -128 15 -785 29 -895 18z m4054 -4132 c140 -41 184 -175 120 -364 -48
-141 -205 -427 -337 -612 -34 -49 -181 -207 -372 -401 -173 -176 -337 -349
-364 -385 -95 -125 -131 -240 -124 -386 7 -138 62 -237 172 -309 179 -119 437
-110 702 26 158 81 421 267 702 498 67 56 125 101 127 101 3 0 5 -80 5 -178
l0 -178 -96 -119 c-168 -208 -264 -315 -439 -490 -334 -335 -644 -544 -902
-611 -287 -75 -557 37 -708 293 -252 425 -327 1072 -179 1546 65 208 312 615
572 942 118 149 330 362 439 443 244 180 482 244 682 184z m-8139 -2876 c0 -3
-4 -8 -10 -11 -5 -3 -10 -1 -10 4 0 6 5 11 10 11 6 0 10 -2 10 -4z"/>
<path d="M568 2853 c6 -2 9 -10 6 -15 -4 -7 -2 -8 5 -4 13 9 5 26 -12 25 -9 0
-8 -2 1 -6z"/>
<path d="M1420 1605 c13 -14 26 -25 28 -25 3 0 -5 11 -18 25 -13 14 -26 25
-28 25 -3 0 5 -11 18 -25z"/>
<path d="M1610 1415 c13 -14 26 -25 28 -25 3 0 -5 11 -18 25 -13 14 -26 25
-28 25 -3 0 5 -11 18 -25z"/>
<path d="M1930 1416 c0 -2 7 -7 16 -10 8 -3 12 -2 9 4 -6 10 -25 14 -25 6z"/>
<path d="M1720 1316 c0 -2 8 -10 18 -17 15 -13 16 -12 3 4 -13 16 -21 21 -21
13z"/>
</g>
</svg>
